<?xml version="1.0" encoding="UTF-8"?>
<svg xmlns="http://www.w3.org/2000/svg" xmlns:xlink="http://www.w3.org/1999/xlink" width="16px" height="16px" viewBox="0 0 16 16" version="1.1">
<g id="surface1">
<path style=" stroke:none;fill-rule:nonzero;fill:rgb(0%,0%,0%);fill-opacity:1;" d="M 9.652344 7.140625 C 9.699219 7.445312 9.730469 7.746094 9.730469 8.140625 C 9.730469 11.570312 7.890625 14 5.121094 14 C 2.46875 14 0.320312 11.316406 0.320312 8 C 0.320312 4.683594 2.46875 2 5.121094 2 C 6.417969 2 7.496094 2.589844 8.335938 3.570312 L 7.03125 5.136719 C 6.679688 4.710938 6.054688 4.210938 5.121094 4.210938 C 3.484375 4.210938 2.148438 5.90625 2.148438 8 C 2.148438 10.09375 3.484375 11.789062 5.121094 11.789062 C 7.019531 11.789062 7.734375 10.078125 7.84375 9.203125 L 5.121094 9.203125 L 5.121094 7.140625 Z M 14.285156 7.339844 L 14.285156 5.601562 L 12.886719 5.601562 L 12.886719 7.339844 L 11.492188 7.339844 L 11.492188 9.089844 L 12.886719 9.089844 L 12.886719 10.832031 L 14.285156 10.832031 L 14.285156 9.089844 L 15.679688 9.089844 L 15.679688 7.339844 Z M 14.285156 7.339844 "/>
</g>
</svg>
